<svg xmlns="http://www.w3.org/2000/svg" viewBox="0 0 64 64" fill="none" stroke="#785ab2" stroke-width="2.5" stroke-linecap="round" stroke-linejoin="round">
  <path d="M32 56C18 44 8 32 8 20a12 12 0 0 1 24-2 12 12 0 0 1 24 2c0 12-10 24-24 36z" fill="#FDF3F5" />
  <path d="M32 12c-1 3.5 2 6 .5 9.5s-4 4-2.5 8 5 3.5 2 7.5-3.5 5-1 9" stroke="#785ab2" stroke-width="3.5" />
  <path d="M29.5 29.5c-3-1-5.5 1-8-0.5M31.5 37c3.5 1 5.5-1 8 0.5" stroke="#785ab2" stroke-width="2" />
  <path d="M22 23.5l-1 2M23.5 22.5l2 1M41 33.5l1-2M39.5 32.5l2 1" />
</svg>
